<svg width="12" height="13" viewBox="0 0 12 13" fill="none" xmlns="http://www.w3.org/2000/svg">
<circle cx="6" cy="6" r="6" fill="#D9D9D9"/>
<path d="M5.16 9V8.12H5.68V5.87H5.16V5H7.17V8.12H7.68V9H5.16ZM6.31 4.26C6.05 4.26 5.84 4.18333 5.68 4.03C5.52 3.87667 5.44 3.67667 5.44 3.43C5.44 3.17667 5.52 2.97667 5.68 2.83C5.84 2.67667 6.05 2.6 6.31 2.6C6.57 2.6 6.77667 2.67667 6.93 2.83C7.09 2.97667 7.17 3.17667 7.17 3.43C7.17667 3.67667 7.1 3.87667 6.94 4.03C6.78 4.18333 6.57 4.26 6.31 4.26Z" fill="white"/>
</svg>
